<svg viewBox="0 0 360 103.50137788955479" height="103.50137788955479" width="360" style="width: 360px; height: 303.501px; position: absolute; top: 50%; left: 50%; transform: translate(-50%, -50%) scale(0.545139); z-index: 0; cursor: pointer;"><defs id="SvgjsDefs1062"></defs><g id="SvgjsG1063" featurekey="PG4fjM-0" transform="matrix(1.095890410958904,0,0,1.095890410958904,-2.898630429620612,0.2684919801476884)" fill="#aea1ea"><title xmlns="http://www.w3.org/2000/svg">icons_done</title><path xmlns="http://www.w3.org/2000/svg" d="M10.92,16.88a1.71,1.71,0,1,1,1.71,1.71A1.71,1.71,0,0,1,10.92,16.88Zm7,1.71a1.71,1.71,0,1,0-1.71-1.71A1.71,1.71,0,0,0,18,18.59Zm5.34,0a1.71,1.71,0,1,0-1.71-1.71A1.71,1.71,0,0,0,23.31,18.59Zm72.41-4.89V89.4a4.81,4.81,0,0,1-4.8,4.8H9.27a4.81,4.81,0,0,1-4.8-4.8V13.69a4.81,4.81,0,0,1,4.8-4.81H90.92A4.81,4.81,0,0,1,95.72,13.69Zm-89.26,0v9.18H93.72V13.69a2.81,2.81,0,0,0-2.8-2.81H9.27A2.81,2.81,0,0,0,6.46,13.69ZM93.72,89.4V24.88H6.46V89.4a2.81,2.81,0,0,0,2.8,2.8H90.92A2.81,2.81,0,0,0,93.72,89.4ZM73.83,36.84a4.28,4.28,0,0,1,0,6.11L46.75,69.69l0,0.15a7.21,7.21,0,0,1-2,6.14,14.38,14.38,0,0,1-9.34,3.45H35.21a13.66,13.66,0,0,1-9.18-4,0.5,0.5,0,0,1,.23-0.85,5.85,5.85,0,0,0,4.22-3.38c2-6.56,6.87-7.42,9.63-7.36h0.13l27.37-27A4.43,4.43,0,0,1,73.83,36.84ZM29.64,75.57L30,75.82a7.32,7.32,0,0,0,4.55,1.4h0a14.83,14.83,0,0,0,8.51-3h0a4.84,4.84,0,0,0,1.7-3.94,4.25,4.25,0,0,0-.6-2l-2.28-2.24-0.1,0a8.85,8.85,0,0,0-9.37,6A10,10,0,0,1,30,75.32Zm16.5-8.77,3.78-3.73-2.67-2.64-3.78,3.73ZM72.06,41.22a1.86,1.86,0,0,0,0-2.64,1.91,1.91,0,0,0-2.67,0L49,58.7l2.67,2.64L72.06,41.22h0Z"></path></g><g id="SvgjsG1064" featurekey="jxYttZ-0" transform="matrix(2.224744237088874,0,0,2.224744237088874,136.44040837198523,33.87627881455563)" fill="#b2ebf9"><path d="M14.64 12.5 c0 4.14 -3.22 7.48 -7.2 7.5 l-5.84 0 l0 -15 l5.84 0 c3.98 0.02 7.2 3.38 7.2 7.5 z M7.4 18.16 c1.32 0 2.58 -0.56 3.52 -1.62 c0.96 -1.08 1.5 -2.5 1.5 -4.04 c0 -1.52 -0.54 -2.96 -1.5 -4.02 c-0.94 -1.06 -2.2 -1.64 -3.52 -1.64 l-3.58 0 l0 11.32 l3.58 0 z M21.259999999999998 9.92 c2.84 0 3.98 1.72 3.98 3.18 l0 6.9 l-2.06 0 l0 -1.08 c-0.72 0.98 -2 1.26 -2.8 1.26 c-2.26 0 -3.74 -1.32 -3.74 -3.08 c0 -2.46 1.84 -3.34 3.74 -3.34 l2.8 0 l0 -0.66 c0 -0.62 -0.24 -1.48 -1.92 -1.48 c-0.94 0 -1.8 0.5 -2.36 1.28 l-1.42 -1.28 c0.94 -1.04 2.28 -1.7 3.78 -1.7 z M23.18 16.92 l0 -1.48 l-2.52 0 c-1.22 0 -2.08 0.62 -1.94 1.74 c0.12 0.94 0.88 1.32 1.94 1.32 c1.9 0 2.52 -0.9 2.52 -1.58 z M36.86 14.3 l0 5.7 l-2.06 0 l0 -5.5 c0 -2 -0.62 -2.88 -2.32 -2.88 c-1.92 0 -2.7 1.34 -2.7 3.08 l0 5.3 l-2.06 0 l0 -9.88 l2.06 0 l0 1.6 c0.28 -0.88 1.52 -1.68 2.7 -1.76 c2.68 -0.2 4.38 1.1 4.38 4.34 z M41.96 10.12 l0 9.88 l-2.06 0 l0 -9.88 l2.06 0 z M42.06 6.5 c0 0.64 -0.5 1.14 -1.14 1.14 c-0.62 0 -1.12 -0.5 -1.12 -1.14 c0 -0.62 0.5 -1.12 1.12 -1.12 c0.64 0 1.14 0.5 1.14 1.12 z M57.17999999999999 5 l6.16 15 l-2.4 0 l-1.5 -3.92 l-5.9 0 l-1.48 3.92 l-2.4 0 l6.16 -15 l1.36 0 z M54.239999999999995 14.24 l4.5 0 l-2.24 -5.92 z M73.32 10.12 c0 0 -2.5 5.92 -4.16 9.88 c-1.4 3.32 -2.5 5.32 -4.36 5.32 c-0.58 0 -1.32 -0.28 -1.86 -0.6 l0.62 -1.8 c0.16 0.14 0.52 0.34 0.76 0.4 c1.54 0.44 2.5 -2.78 3.16 -4.36 l-3.74 -8.84 l2.08 0 l2.72 6.48 l2.7 -6.48 l2.08 0 z M84.24 15.08 l0 0.74 l-7.78 0 c0 1.82 1.74 2.7 3.02 2.7 c0.94 0 1.98 -0.5 2.54 -1.3 l1.42 1.28 c-0.66 0.9 -1.74 1.7 -3.96 1.7 c-3.2 0 -5.16 -2.18 -5.16 -5.12 s1.9 -5.14 4.96 -5.14 s4.46 1.7 4.88 4.18 c0.06 0.32 0.08 0.64 0.08 0.96 z M76.5 14.120000000000001 l5.58 0 c0 -1.6 -1.28 -2.48 -2.8 -2.48 s-2.78 1.02 -2.78 2.48 z M92.17999999999999 10.24 l-0.44 1.62 c-0.14 -0.08 -0.58 -0.22 -0.94 -0.22 c-1.7 0 -2.5 1.62 -2.5 3.62 l0 4.74 l-2.06 0 l0 -9.88 l2.06 0 l0 1.4 c0.24 -0.92 1.3 -1.58 2.48 -1.58 c0.54 0 1.12 0.14 1.4 0.3 z M100.32 16.16 c0.04 0.12 0.38 1.1 -0.04 2.1 c-0.52 1.18 -1.9 1.94 -3.62 1.94 l-0.02 0 c-1.38 0 -2.64 -0.58 -3.58 -1.5 l1.34 -1.34 c0.56 0.72 1.36 1.08 2.24 1.08 c0.98 0 1.8 -0.36 2.02 -0.88 c0.14 -0.36 0.02 -0.74 0.02 -0.78 c-0.24 -0.6 -1.12 -0.72 -2.12 -0.94 c-1.34 -0.3 -2.68 -0.64 -3.2 -2.04 c-0.26 -0.72 -0.18 -1.56 0.18 -2.26 c0.82 -1.54 2.86 -1.6 3.1 -1.6 c1.38 0 2.68 0.52 3.6 1.46 l-1.34 1.34 c-0.56 -0.72 -1.38 -1.04 -2.26 -1.04 c-0.02 0 -1.2 0.02 -1.54 0.68 c-0.12 0.2 -0.18 0.54 -0.08 0.82 c0.2 0.56 1.1 0.74 2.06 0.96 c1.3 0.3 2.72 0.6 3.24 2 z"></path></g></svg>