<svg viewBox="0 0 150 150" height="50" width="50" style="width: 50px; height: 50px; cursor: pointer;"><defs id="SvgjsDefs1062"></defs><g id="SvgjsG1063" featurekey="PG4fjM-0" transform="matrix(1.095890410958904,0,0,1.095890410958904,-2.898630429620612,0.2684919801476884)" fill="#aea1ea"><title xmlns="http://www.w3.org/2000/svg">icons_done</title><path xmlns="http://www.w3.org/2000/svg" d="M10.92,16.88a1.71,1.71,0,1,1,1.71,1.71A1.71,1.71,0,0,1,10.92,16.88Zm7,1.71a1.71,1.71,0,1,0-1.71-1.71A1.71,1.71,0,0,0,18,18.59Zm5.34,0a1.71,1.71,0,1,0-1.71-1.71A1.71,1.71,0,0,0,23.31,18.59Zm72.41-4.89V89.4a4.81,4.81,0,0,1-4.8,4.8H9.27a4.81,4.81,0,0,1-4.8-4.8V13.69a4.81,4.81,0,0,1,4.8-4.81H90.92A4.81,4.81,0,0,1,95.72,13.69Zm-89.26,0v9.18H93.72V13.69a2.81,2.81,0,0,0-2.8-2.81H9.27A2.81,2.81,0,0,0,6.46,13.69ZM93.72,89.4V24.88H6.46V89.4a2.81,2.81,0,0,0,2.8,2.8H90.92A2.81,2.81,0,0,0,93.72,89.4ZM73.83,36.84a4.28,4.28,0,0,1,0,6.11L46.75,69.69l0,0.15a7.21,7.21,0,0,1-2,6.14,14.38,14.38,0,0,1-9.34,3.45H35.21a13.66,13.66,0,0,1-9.18-4,0.5,0.5,0,0,1,.23-0.85,5.85,5.85,0,0,0,4.22-3.38c2-6.56,6.87-7.42,9.63-7.36h0.13l27.37-27A4.43,4.43,0,0,1,73.83,36.84ZM29.64,75.57L30,75.82a7.32,7.32,0,0,0,4.55,1.4h0a14.83,14.83,0,0,0,8.51-3h0a4.84,4.84,0,0,0,1.7-3.94,4.25,4.25,0,0,0-.6-2l-2.28-2.24-0.1,0a8.85,8.85,0,0,0-9.37,6A10,10,0,0,1,30,75.32Zm16.5-8.77,3.78-3.73-2.67-2.64-3.78,3.73ZM72.06,41.22a1.86,1.86,0,0,0,0-2.64,1.91,1.91,0,0,0-2.67,0L49,58.7l2.67,2.64L72.06,41.22h0Z"></path></g></svg>